<svg id="レイヤー_2" data-name="レイヤー 2" xmlns="http://www.w3.org/2000/svg" viewBox="0 0 58 58"><defs><style>.cls-1{fill:none;stroke:#aa8f7b;stroke-linecap:round;stroke-linejoin:round;stroke-width:2px;}</style></defs><path class="cls-1" d="M268.73,247.64" transform="translate(-252.02 -223.46)"/><path class="cls-1" d="M271.93,252.4" transform="translate(-252.02 -223.46)"/><path class="cls-1" d="M268.73,247.64l5.71-4.57a3.89,3.89,0,0,0,1.12-4.6l-5.2-11.71a3.88,3.88,0,0,0-4.52-2.18l-9.9,2.57a3.9,3.9,0,0,0-2.88,4.31,57.52,57.52,0,0,0,49,49,3.91,3.91,0,0,0,4.31-2.88l2.57-9.9a3.9,3.9,0,0,0-2.18-4.52L295,257.92a3.89,3.89,0,0,0-4.6,1.12l-4.57,5.7a48.06,48.06,0,0,1-13.91-12.34" transform="translate(-252.02 -223.46)"/><path class="cls-1" d="M284,225.46a24,24,0,0,1,24,24" transform="translate(-252.02 -223.46)"/><path class="cls-1" d="M296,249.46a12,12,0,0,0-12-12" transform="translate(-252.02 -223.46)"/></svg>